<?xml version="1.0"?>
<svg width="32" height="32" xmlns="http://www.w3.org/2000/svg" xmlns:svg="http://www.w3.org/2000/svg">
 <g class="layer">
  <title>Layer 1</title>
  <path d="m31.25,16c0,0.41 -0.12,0.81 -0.36,1.17c-0.24,0.36 -0.57,0.66 -0.97,0.87l-24.95,13.1c-0.42,0.23 -0.9,0.35 -1.39,0.36c-0.5,0.01 -0.98,-0.1 -1.41,-0.31c-0.43,-0.2 -0.79,-0.5 -1.04,-0.87c-0.25,-0.37 -0.37,-0.77 -0.37,-1.2l0,-26.23c0,-0.43 0.12,-0.83 0.37,-1.2c0.25,-0.37 0.61,-0.67 1.04,-0.87c0.43,-0.21 0.91,-0.32 1.41,-0.31c0.49,0.01 0.97,0.13 1.39,0.36l24.95,13.1c0.4,0.21 0.73,0.51 0.97,0.87c0.24,0.36 0.36,0.76 0.36,1.17z" fill="#FFF2F2" id="svg_1"/>
 </g>
</svg>