<svg width="32" height="32" viewBox="0 0 32 32" fill="none" xmlns="http://www.w3.org/2000/svg">
<path d="M31.65 15.9999C31.6515 16.3351 31.5687 16.6653 31.4093 16.9602C31.2499 17.2551 31.0188 17.5051 30.7375 17.6874L19.5875 24.8499C19.2849 25.0459 18.935 25.1565 18.5747 25.17C18.2144 25.1835 17.8572 25.0993 17.5408 24.9264C17.2244 24.7535 16.9607 24.4982 16.7775 24.1877C16.5942 23.8772 16.4984 23.5229 16.5 23.1624V17.8374L5.58751 24.8499C5.28492 25.0459 4.93497 25.1565 4.57468 25.17C4.21439 25.1835 3.85716 25.0993 3.54079 24.9264C3.22442 24.7535 2.96067 24.4982 2.77746 24.1877C2.59424 23.8772 2.49838 23.5229 2.50001 23.1624V8.83739C2.49838 8.47685 2.59424 8.12258 2.77746 7.81205C2.96067 7.50153 3.22442 7.24631 3.54079 7.07339C3.85716 6.90048 4.21439 6.8163 4.57468 6.82976C4.93497 6.84323 5.28492 6.95384 5.58751 7.14989L16.5 14.1624V8.83739C16.4984 8.47685 16.5942 8.12258 16.7775 7.81205C16.9607 7.50153 17.2244 7.24631 17.5408 7.07339C17.8572 6.90048 18.2144 6.8163 18.5747 6.82976C18.935 6.84323 19.2849 6.95384 19.5875 7.14989L30.7375 14.3124C31.0188 14.4947 31.2499 14.7447 31.4093 15.0396C31.5687 15.3345 31.6515 15.6647 31.65 15.9999Z" fill="#FFD9D9"/>
</svg>
